<svg width="24" height="24" viewBox="0 0 24 24" fill="none" xmlns="http://www.w3.org/2000/svg">
    <path
        d="M 12.0627,5.06274 11.9373,4.93726 C 11.5914,4.59135 11.4184,4.4184 11.2166,4.29472 11.0376,4.18506 10.8425,4.10425 10.6385,4.05526 10.4083,4 10.1637,4 9.67452,4 H 6.2 C 5.0799,4 4.51984,4 4.09202,4.21799 3.71569,4.40973 3.40973,4.71569 3.21799,5.09202 3,5.51984 3,6.07989 3,7.2 v 9.6 c 0,1.1201 0,1.6802 0.21799,2.108 0.19174,0.3763 0.4977,0.6823 0.87403,0.874 C 4.51984,20 5.07989,20 6.2,20 h 11.6 c 1.1201,0 1.6802,0 2.108,-0.218 0.3763,-0.1917 0.6823,-0.4977 0.874,-0.874 C 21,18.4802 21,17.9201 21,16.8 V 9.2 C 21,8.0799 21,7.51984 20.782,7.09202 20.5903,6.71569 20.2843,6.40973 19.908,6.21799 19.4802,6 18.9201,6 17.8,6 H 14.3255 C 13.8363,6 13.5917,6 13.3615,5.94474 13.1575,5.89575 12.9624,5.81494 12.7834,5.70528 12.5816,5.5816 12.4086,5.40865 12.0627,5.06274 Z"
        stroke="black" stroke-width="1.5" stroke-linecap="round" stroke-linejoin="round" />
</svg>
