<svg width="18" height="19" viewBox="0 0 18 19" fill="none" xmlns="http://www.w3.org/2000/svg">
<path fill-rule="evenodd" clip-rule="evenodd" d="M9 2.75C6.51472 2.75 4.5 4.76472 4.5 7.25V8.67601C3.82747 9.06505 3.375 9.79218 3.375 10.625V14C3.375 15.2426 4.38236 16.25 5.625 16.25H12.375C13.6176 16.25 14.625 15.2426 14.625 14V10.625C14.625 9.79218 14.1725 9.06505 13.5 8.67601V7.25C13.5 4.76472 11.4853 2.75 9 2.75ZM11.25 8.375V7.25C11.25 6.00736 10.2426 5 9 5C7.75736 5 6.75 6.00736 6.75 7.25V8.375H11.25Z" fill="#35C47C"/>
</svg>
