<svg width="24" height="24" viewBox="0 0 24 24" xmlns="http://www.w3.org/2000/svg">
<path d="M2.17443 11.5705C2.17443 6.71916 6.70787 3 12.0158 3C17.3237 3 21.8571 6.71916 21.8571 11.5705C21.8571 16.4219 17.3237 20.1411 12.0158 20.1411C10.8388 20.1411 9.70748 19.9612 8.6575 19.6297C7.41907 20.7856 5.61966 21.3412 3.4185 21.4276C2.52184 21.4629 1.87465 20.5302 2.2501 19.6954C2.78274 18.5028 3.47093 17.1356 3.55254 15.9431C2.68097 14.6739 2.17443 13.1761 2.17443 11.5705ZM12.0158 4.71429C7.40001 4.71429 3.88872 7.90192 3.88872 11.5705C3.88872 12.8879 4.32983 14.1238 5.10745 15.1711C5.21718 15.3188 5.27643 15.498 5.27643 15.6821C5.27643 17.0824 4.7182 18.4037 4.14978 19.6576C5.91213 19.4704 7.06827 18.9061 7.76543 18.0857C7.99957 17.8102 8.38144 17.7112 8.71994 17.8383C9.72469 18.2157 10.8393 18.4268 12.0158 18.4268C16.6316 18.4268 20.1429 15.2391 20.1429 11.5705C20.1429 7.90192 16.6316 4.71429 12.0158 4.71429Z"/>
</svg>
