<svg width="24" height="24" viewBox="0 0 24 24" fill="none" xmlns="http://www.w3.org/2000/svg">
<g clip-path="url(#clip0_28_2865)">
<path d="M6.5332 2.25C7.82924 2.25 8.87155 3.20338 9.12207 4.43945L9.16211 4.69043V4.69238L9.43652 7.21777L9.44922 7.37207C9.49131 8.1418 9.22474 8.89844 8.69727 9.45703L7.30664 10.9287C8.52073 13.2496 10.3267 15.1626 12.4951 16.4551L13.833 15.04C14.3982 14.4416 15.2005 14.1395 16.0215 14.2393L18.4248 14.5303H18.4277C19.7838 14.7009 20.7594 15.8946 20.75 17.2588V18.9922C20.75 20.4837 19.5646 21.8481 17.9922 21.7451C9.50989 21.1871 2.77667 14.0196 2.25488 5.11816C2.16439 3.57139 3.37961 2.25 4.89648 2.25H6.5332Z" stroke="black" stroke-width="1.5"/>
</g>
<defs>
<clipPath id="clip0_28_2865">
<rect width="24" height="24"/>
</clipPath>
</defs>
</svg>
