<svg width="23.5" height="23.5" viewBox="0 0 6.218 6.218" xml:space="preserve" xmlns="http://www.w3.org/2000/svg">
    <g clip-path="url(#clip0_424_5937)" transform="matrix(.26458 0 0 .26458 -.155 -.066)">
        <path d="M12.334 8.25A3.761 3.761 0 0 0 8.584 12a3.761 3.761 0 0 0 3.75 3.75 3.761 3.761 0 0 0 3.75-3.75 3.761 3.761 0 0 0-3.75-3.75zm0 1.5c1.251 0 2.25.998 2.25 2.25s-.999 2.25-2.25 2.25a2.239 2.239 0 0 1-2.25-2.25c0-1.252.998-2.25 2.25-2.25z"/>
        <path d="M12.334.25c-.73 0-1.43.29-1.945.805A2.752 2.752 0 0 0 9.584 3v.17a.903.903 0 0 1-.15.49.899.899 0 0 1-.373.31.75.75 0 0 0-.11.024.905.905 0 0 1-.994-.18l-.053-.054a2.752 2.752 0 0 0-3-.598 2.753 2.753 0 0 0-.89.598 2.752 2.752 0 0 0-.598 2.998c.138.334.342.637.598.892l.052.055a.9.9 0 0 1 .182.992.75.75 0 0 0-.02.043.9.9 0 0 1-.822.59h-.072c-.73 0-1.43.29-1.945.805a2.752 2.752 0 0 0 1.945 4.695h.17a.902.902 0 0 1 .82.545.75.75 0 0 0 .002.008.898.898 0 0 1-.18.992l-.052.055a2.751 2.751 0 0 0-.598 2.998 2.751 2.751 0 0 0 1.488 1.488 2.748 2.748 0 0 0 2.107 0c.335-.138.638-.34.893-.596l.053-.054a.9.9 0 0 1 .994-.18.75.75 0 0 0 .043.018.903.903 0 0 1 .59.824V21a2.752 2.752 0 0 0 5.5 0v-.17a.894.894 0 0 1 .545-.82.75.75 0 0 0 .008-.004.898.898 0 0 1 .992.18l.053.054a2.757 2.757 0 0 0 3 .596v.002a2.75 2.75 0 0 0 1.488-3.596 2.749 2.749 0 0 0-.596-.892l-.054-.055a.9.9 0 0 1-.18-.992.75.75 0 0 0 .002-.008.9.9 0 0 1 .332-.395.896.896 0 0 1 .49-.15h.09a2.748 2.748 0 0 0 2.75-2.75 2.754 2.754 0 0 0-2.75-2.75h-.17a.896.896 0 0 1-.49-.15.898.898 0 0 1-.31-.37.75.75 0 0 0-.024-.113.898.898 0 0 1 .18-.992l.054-.055a2.75 2.75 0 0 0 .596-2.998 2.75 2.75 0 0 0-4.488-.892l-.053.054a.9.9 0 0 1-.992.18.75.75 0 0 0-.008-.004.9.9 0 0 1-.545-.82V3a2.754 2.754 0 0 0-2.75-2.75zm0 1.5A1.252 1.252 0 0 1 13.584 3v.09a.75.75 0 0 0 0 .004 2.394 2.394 0 0 0 1.451 2.193 2.397 2.397 0 0 0 2.643-.48.75.75 0 0 0 .006-.006l.06-.06a1.253 1.253 0 0 1 2.041.405c.063.152.094.315.094.479a1.248 1.248 0 0 1-.365.885l-.06.06a.75.75 0 0 0-.007.006 2.402 2.402 0 0 0-.48 2.647l-.065-.303V9a.75.75 0 0 0 .063.295 2.398 2.398 0 0 0 2.195 1.455.75.75 0 0 0 .004 0h.17a1.252 1.252 0 0 1 .883 2.135 1.246 1.246 0 0 1-.883.365h-.09a.75.75 0 0 0-.004 0c-.468.002-.926.14-1.316.398a2.402 2.402 0 0 0-.877 1.053 2.397 2.397 0 0 0 .48 2.643.75.75 0 0 0 .006.006l.06.06a1.253 1.253 0 0 1 0 1.77.75.75 0 0 0-.001 0 1.244 1.244 0 0 1-1.362.271.75.75 0 0 0-.002 0 1.244 1.244 0 0 1-.404-.271l-.06-.06a.75.75 0 0 0-.006-.007 2.398 2.398 0 0 0-2.645-.478 2.397 2.397 0 0 0-1.449 2.193.75.75 0 0 0 0 .002V21a1.252 1.252 0 0 1-2.135.885 1.25 1.25 0 0 1-.365-.885v-.09a.75.75 0 0 0 0-.017 2.4 2.4 0 0 0-.447-1.34.75.75 0 0 0-.002 0 2.4 2.4 0 0 0-1.104-.844 2.402 2.402 0 0 0-1.373-.16c-.472.085-.907.31-1.25.644a.75.75 0 0 0-.006.006l-.058.06a.75.75 0 0 0-.002 0 1.244 1.244 0 0 1-1.361.272.75.75 0 0 0-.002 0 1.245 1.245 0 0 1-.405-.271.75.75 0 0 0-.002 0 1.247 1.247 0 0 1-.365-.885 1.25 1.25 0 0 1 .365-.885.75.75 0 0 0 .002 0l.059-.06a.75.75 0 0 0 .006-.006 2.397 2.397 0 0 0 .48-2.643 2.403 2.403 0 0 0-.877-1.052 2.402 2.402 0 0 0-1.316-.399.75.75 0 0 0-.002 0h-.17a1.25 1.25 0 1 1 0-2.5h.09a.75.75 0 0 0 .017 0 2.399 2.399 0 0 0 1.34-.447c.385-.275.672-.662.84-1.104.186-.433.248-.909.164-1.373a2.401 2.401 0 0 0-.646-1.25.75.75 0 0 0-.006-.006l-.059-.06a1.253 1.253 0 0 1 .885-2.137 1.25 1.25 0 0 1 .883.367.75.75 0 0 0 .002 0l.058.06a.75.75 0 0 0 .006.007 2.398 2.398 0 0 0 2.649.478l-.303.065h.08a.75.75 0 0 0 .295-.06c.43-.185.796-.491 1.055-.882.258-.39.398-.846.4-1.314a.75.75 0 0 0 0-.004V3a1.25 1.25 0 0 1 1.25-1.25z"/>
    </g>
</svg>